<svg width="316" height="316" viewBox="0 0 316 316" fill="none" xmlns="http://www.w3.org/2000/svg">
<rect width="316" height="316" rx="158" fill="black"/>
<path d="M55.4414 100.34L71.1168 77.5624L62.5908 71.6947L67.0411 65.2281L92.2073 82.5476L87.757 89.0142L79.231 83.1466L63.5555 105.924L55.4414 100.34Z" fill="white"/>
<path d="M40.8787 205.239L43.1088 198.763L46.7963 200.032C47.5528 200.293 48.1423 200.372 48.5649 200.271C49.0191 200.181 49.4596 199.874 49.8864 199.351L50.5104 198.614L48.1938 197.817L47.6196 171.072L56.7911 174.231L56.2623 190.97L65.8208 177.34L74.9923 180.498L56.0957 204.662C54.7827 206.325 53.4074 207.35 51.97 207.736C50.5641 208.134 48.821 207.974 46.7409 207.258L40.8787 205.239Z" fill="white"/>
<path d="M107.945 278.218L93.9129 246.701L102.546 242.857L105.027 247.937L104.331 247.973C104.154 245.936 104.525 244.147 105.445 242.606C106.364 241.066 107.737 239.889 109.565 239.075C111.757 238.099 113.859 237.82 115.869 238.239C117.88 238.657 119.715 239.664 121.374 241.261C123.02 242.827 124.406 244.874 125.531 247.401C126.643 249.898 127.222 252.304 127.267 254.619C127.343 256.92 126.849 258.965 125.784 260.753C124.749 262.527 123.136 263.902 120.943 264.878C119.786 265.393 118.61 265.661 117.415 265.683C116.207 265.673 115.039 265.427 113.912 264.944C112.815 264.447 111.833 263.716 110.966 262.752L111.478 262.305L116.807 274.273L107.945 278.218ZM115.239 259.81C116.518 259.241 117.265 258.215 117.481 256.732C117.683 255.219 117.336 253.458 116.441 251.448C115.547 249.438 114.476 248.017 113.23 247.186C111.971 246.323 110.701 246.177 109.422 246.746C108.57 247.126 107.947 247.695 107.555 248.454C107.163 249.212 107.016 250.153 107.115 251.276C107.245 252.386 107.628 253.657 108.265 255.088C108.902 256.52 109.59 257.655 110.329 258.493C111.097 259.319 111.895 259.839 112.721 260.056C113.547 260.272 114.386 260.19 115.239 259.81Z" fill="white"/>
<path d="M149.945 127.218L135.913 95.7008L144.546 91.8571L147.027 96.9373L146.331 96.9733C146.154 94.936 146.525 93.147 147.445 91.6065C148.364 90.0659 149.737 88.8889 151.565 88.0755C153.757 87.0993 155.859 86.8204 157.869 87.2388C159.88 87.6571 161.715 88.6645 163.374 90.2609C165.02 91.8268 166.406 93.8735 167.531 96.401C168.643 98.898 169.222 101.304 169.267 103.619C169.343 105.92 168.849 107.965 167.784 109.753C166.749 111.527 165.136 112.902 162.943 113.878C161.786 114.393 160.61 114.661 159.415 114.683C158.207 114.673 157.039 114.427 155.912 113.944C154.815 113.447 153.833 112.716 152.966 111.752L153.478 111.305L158.807 123.273L149.945 127.218ZM157.239 108.81C158.518 108.241 159.265 107.215 159.481 105.732C159.683 104.219 159.336 102.458 158.441 100.448C157.547 98.4382 156.476 97.0174 155.23 96.1857C153.971 95.3235 152.701 95.1771 151.422 95.7465C150.57 96.1261 149.947 96.6951 149.555 97.4535C149.163 98.2119 149.016 99.1529 149.115 100.276C149.245 101.386 149.628 102.657 150.265 104.088C150.902 105.52 151.59 106.655 152.329 107.493C153.097 108.319 153.895 108.839 154.721 109.056C155.547 109.272 156.386 109.19 157.239 108.81Z" fill="white"/>
<path d="M198.253 294.511C195.356 294.052 192.912 293.075 190.921 291.578C188.964 290.087 187.54 288.208 186.651 285.941C185.799 283.646 185.595 281.099 186.038 278.301C186.482 275.502 187.46 273.16 188.974 271.274C190.521 269.392 192.455 268.045 194.778 267.232C197.138 266.391 199.767 266.2 202.664 266.658C205.562 267.117 207.986 268.109 209.939 269.633C211.929 271.129 213.353 273.009 214.209 275.271C215.099 277.538 215.322 280.07 214.879 282.869C214.436 285.667 213.438 288.024 211.886 289.938C210.373 291.824 208.438 293.171 206.083 293.98C203.76 294.793 201.15 294.97 198.253 294.511ZM199.34 287.647C200.822 287.881 202.054 287.452 203.037 286.359C204.02 285.266 204.692 283.584 205.051 281.312C205.406 279.074 205.285 277.282 204.687 275.939C204.095 274.563 203.059 273.758 201.577 273.523C200.096 273.288 198.861 273.734 197.872 274.86C196.889 275.953 196.22 277.619 195.866 279.857C195.506 282.129 195.625 283.937 196.222 285.28C196.819 286.623 197.859 287.412 199.34 287.647Z" fill="white"/>
<path d="M254.293 231.47C251.669 232.925 249.387 233.827 247.447 234.178C245.537 234.513 243.869 234.427 242.445 233.921C241.037 233.444 239.797 232.683 238.723 231.64L247.042 226.228C247.524 226.685 248.079 226.93 248.707 226.963C249.38 227.009 250.257 226.733 251.335 226.135C252.531 225.472 253.263 224.628 253.533 223.602C253.802 222.576 253.501 221.276 252.628 219.701L251.683 217.996C251.678 219.294 251.234 220.589 250.349 221.88C249.463 223.171 248.263 224.236 246.747 225.077C244.852 226.127 242.917 226.59 240.942 226.465C238.967 226.34 237.095 225.644 235.325 224.376C233.555 223.109 232.016 221.294 230.707 218.933C229.447 216.659 228.74 214.421 228.586 212.219C228.433 210.017 228.811 208.017 229.719 206.218C230.627 204.418 232.029 202.993 233.924 201.943C235.702 200.957 237.355 200.536 238.883 200.68C240.411 200.824 241.835 201.331 243.156 202.199L241.168 198.614L249.564 193.959L261.103 214.775C262.363 217.049 262.858 219.214 262.587 221.27C262.346 223.309 261.486 225.196 260.008 226.93C258.559 228.648 256.654 230.161 254.293 231.47ZM246.589 217.675C247.784 217.013 248.434 215.985 248.539 214.593C248.673 213.185 248.223 211.548 247.189 209.682C246.51 208.458 245.768 207.497 244.963 206.8C244.186 206.087 243.377 205.659 242.536 205.516C241.723 205.356 240.909 205.503 240.092 205.955C238.839 206.65 238.161 207.731 238.059 209.198C237.958 210.664 238.391 212.272 239.361 214.021C240.347 215.8 241.503 217.026 242.83 217.701C244.141 218.346 245.394 218.338 246.589 217.675Z" fill="white"/>
<path d="M255.298 139.418L263.642 113.74L272.581 116.644L270.24 124.821L269.605 124.51C271.008 121.811 272.433 120.013 273.881 119.117C275.329 118.22 277.004 118.081 278.906 118.699L281.093 119.41L278.714 126.733L276.431 125.992C275.068 125.549 273.896 125.326 272.916 125.322C271.978 125.298 271.179 125.546 270.518 126.068C269.89 126.6 269.38 127.468 268.989 128.673L264.523 142.416L255.298 139.418Z" fill="white"/>
<path d="M215.35 76.6C212.517 76.6 210.183 75.95 208.35 74.65C206.517 73.35 205.6 71.5333 205.6 69.2C205.6 66.8 206.383 64.9667 207.95 63.7C209.55 62.4 211.817 61.4333 214.75 60.8L222.85 59.1C222.85 57.7 222.55 56.6333 221.95 55.9C221.35 55.1667 220.517 54.8 219.45 54.8C218.317 54.8 217.433 55.0833 216.8 55.65C216.2 56.1833 215.817 56.9833 215.65 58.05L206.05 57.75C206.583 54.4833 208 52.1167 210.3 50.65C212.6 49.15 215.65 48.4 219.45 48.4C223.85 48.4 227.133 49.35 229.3 51.25C231.467 53.15 232.55 56.0333 232.55 59.9V67.8C232.55 68.6667 232.683 69.2333 232.95 69.5C233.25 69.7667 233.65 69.9 234.15 69.9H234.7V76C234.4 76.1 233.917 76.1833 233.25 76.25C232.583 76.35 231.933 76.4 231.3 76.4C230.333 76.4 229.333 76.2333 228.3 75.9C227.267 75.5667 226.4 74.9333 225.7 74C225 73.0333 224.65 71.6333 224.65 69.8L225.35 70.6C224.983 71.8333 224.383 72.9 223.55 73.8C222.717 74.7 221.617 75.4 220.25 75.9C218.917 76.3667 217.283 76.6 215.35 76.6ZM218.05 70.5C218.95 70.5 219.75 70.3167 220.45 69.95C221.183 69.5833 221.767 69.0333 222.2 68.3C222.633 67.5333 222.85 66.5667 222.85 65.4V64.5L218.45 65.6C217.617 65.8 216.917 66.1333 216.35 66.6C215.817 67.0333 215.55 67.6 215.55 68.3C215.55 69 215.75 69.55 216.15 69.95C216.55 70.3167 217.183 70.5 218.05 70.5Z" fill="white"/>
<path d="M134.8 198V162.5H144.5V177.5L143.2 177.6C143.4 175.967 143.883 174.633 144.65 173.6C145.45 172.533 146.433 171.733 147.6 171.2C148.8 170.667 150.1 170.4 151.5 170.4C153.567 170.4 155.283 170.833 156.65 171.7C158.017 172.567 159.033 173.783 159.7 175.35C160.4 176.883 160.75 178.65 160.75 180.65V198H151.05V182.8C151.05 181.2 150.833 179.983 150.4 179.15C149.967 178.283 149.167 177.85 148 177.85C146.867 177.85 146 178.283 145.4 179.15C144.8 180.017 144.5 181.333 144.5 183.1V198H134.8Z" fill="white"/>
<path d="M202.75 177.5V170.65H206.65C207.45 170.65 208.033 170.533 208.4 170.3C208.8 170.067 209.117 169.633 209.35 169L209.7 168.1H207.25L198 143H207.7L212.65 159L217.25 143H226.95L216.95 172C216.25 174 215.283 175.417 214.05 176.25C212.85 177.083 211.15 177.5 208.95 177.5H202.75Z" fill="white"/>
</svg>
